<svg width="33" height="33" viewBox="0 0 33 33" fill="none" xmlns="http://www.w3.org/2000/svg">
<mask id="mask0_369_646" style="mask-type:luminance" maskUnits="userSpaceOnUse" x="0" y="0" width="32" height="32">
<path d="M31.4095 0.5H0.690674V31.22H31.4095V0.5Z" fill="white"/>
</mask>
<g mask="url(#mask0_369_646)">
<path d="M29.1418 0.5H2.95832C2.3569 0.5 1.78012 0.738921 1.35485 1.1642C0.929586 1.58949 0.690674 2.16629 0.690674 2.76774V28.9522C0.690674 29.5537 0.929586 30.1305 1.35485 30.5558C1.78012 30.981 2.3569 31.22 2.95832 31.22H29.1418C29.7432 31.22 30.32 30.981 30.7453 30.5558C31.1705 30.1305 31.4095 29.5537 31.4095 28.9522V2.76774C31.4095 2.16629 31.1705 1.58949 30.7453 1.1642C30.32 0.738921 29.7432 0.5 29.1418 0.5ZM9.84658 26.6696H5.2281V11.9987H9.84658V26.6696ZM7.53414 9.9656C7.01025 9.96266 6.49898 9.80458 6.06484 9.51132C5.6307 9.21805 5.29317 8.80276 5.09483 8.31784C4.89647 7.83293 4.84622 7.30012 4.95039 6.78666C5.05455 6.27321 5.30848 5.80212 5.68012 5.43284C6.05176 5.06357 6.52446 4.81267 7.03855 4.71179C7.55264 4.61091 8.08509 4.6646 8.5687 4.86607C9.05232 5.06753 9.46542 5.40774 9.75588 5.84376C10.0463 6.27979 10.2011 6.79208 10.2007 7.316C10.2056 7.66676 10.1399 8.01493 10.0074 8.33974C9.87497 8.66457 9.67846 8.95939 9.42962 9.20665C9.18079 9.45389 8.88472 9.64852 8.55906 9.77891C8.23342 9.90931 7.88485 9.97279 7.53414 9.9656ZM26.8699 26.6824H22.2536V18.6674C22.2536 16.3038 21.2488 15.5742 19.9517 15.5742C18.5822 15.5742 17.2383 16.6066 17.2383 18.7272V26.6824H12.6198V12.0093H17.0612V14.0424H17.121C17.5668 13.14 19.1284 11.5976 21.5112 11.5976C24.0882 11.5976 26.8721 13.1272 26.8721 17.6072L26.8699 26.6824Z" fill="#94A3B8" fill-opacity="0.4"/>
</g>
</svg>
