<svg width="24" height="25" viewBox="0 0 24 25" fill="none" xmlns="http://www.w3.org/2000/svg">
<g opacity="0.3">
<path d="M20 12.0955C20 10.9925 19.103 10.0955 18 10.0955H17V7.09549C17 4.33849 14.757 2.09549 12 2.09549C9.243 2.09549 7 4.33849 7 7.09549V10.0955H6C4.897 10.0955 4 10.9925 4 12.0955V20.0955C4 21.1985 4.897 22.0955 6 22.0955H18C19.103 22.0955 20 21.1985 20 20.0955V12.0955ZM9 7.09549C9 5.44149 10.346 4.09549 12 4.09549C13.654 4.09549 15 5.44149 15 7.09549V10.0955H9V7.09549Z" fill="#333333"/>
</g>
</svg>
