<svg width="22" height="21" viewBox="0 0 22 21" fill="none" xmlns="http://www.w3.org/2000/svg">
<path d="M9.92411 1.51321C10.3643 0.621407 11.636 0.621406 12.0762 1.51321L14.3262 6.07149C14.5009 6.42531 14.8383 6.67066 15.2287 6.72773L20.2623 7.46346C21.2462 7.60727 21.6383 8.81668 20.926 9.51047L17.2856 13.0562C17.0026 13.3319 16.8734 13.7292 16.9402 14.1187L17.7991 19.1264C17.9672 20.1068 16.9382 20.8543 16.0578 20.3913L11.5587 18.0253C11.209 17.8414 10.7913 17.8414 10.4416 18.0253L5.94252 20.3913C5.06217 20.8543 4.03311 20.1068 4.20125 19.1264L5.06013 14.1187C5.12693 13.7292 4.99773 13.3319 4.71468 13.0562L1.07431 9.51047C0.362 8.81668 0.754139 7.60727 1.73804 7.46346L6.7716 6.72773C7.16203 6.67066 7.49945 6.42531 7.6741 6.07149L9.92411 1.51321Z" fill="#FFAA00"/>
</svg>
